<svg viewBox="0 0 210 248" width="195" xmlns="http://www.w3.org/2000/svg" font-family="Helvetica Neue, Arial, sans-serif">
  <defs>
    <marker id="gEdge" markerWidth="7" markerHeight="7" refX="5.5" refY="3" orient="auto">
      <path d="M0,0 L6,3 L0,6 Z" fill="#1b1f24"/>
    </marker>
    <marker id="gStep" markerWidth="8" markerHeight="8" refX="6" refY="3.5" orient="auto">
      <path d="M0,0 L7,3.5 L0,7 Z" fill="#7a1fa2"/>
    </marker>
  </defs>
  <path d="M46,44 q-13,0 -13,13 L33,116 q0,7 -8,7 q8,0 8,7 L33,213 q0,13 13,13" fill="none" stroke="#7a1fa2" stroke-width="2.4"/>
  <text x="14" y="132" font-size="26" font-style="italic" fill="#7a1fa2">&#964;</text>
  <text x="126" y="20" text-anchor="middle" font-size="13" fill="#5b6672">empty graph</text>
  <g transform="translate(0,40)">
    <circle cx="74" cy="16" r="5" fill="#1b1f24"/><text x="66" y="21" text-anchor="end" font-size="14">A</text>
    <circle cx="178" cy="16" r="5" fill="#1b1f24"/><text x="186" y="21" font-size="14">B</text>
  </g>
  <line x1="126" y1="76" x2="126" y2="100" stroke="#7a1fa2" stroke-width="2.6" marker-end="url(#gStep)"/>
  <text x="139" y="93" font-size="14" font-style="italic" fill="#7a1fa2">a</text>
  <g transform="translate(0,108)">
    <line x1="81" y1="16" x2="171" y2="16" stroke="#1b1f24" stroke-width="1.6" marker-end="url(#gEdge)"/>
    <circle cx="74" cy="16" r="5" fill="#1b1f24"/><text x="66" y="21" text-anchor="end" font-size="14">A</text>
    <circle cx="178" cy="16" r="5" fill="#1b1f24"/><text x="186" y="21" font-size="14">B</text>
  </g>
  <line x1="126" y1="144" x2="126" y2="168" stroke="#7a1fa2" stroke-width="2.6" marker-end="url(#gStep)"/>
  <text x="139" y="161" font-size="14" font-style="italic" fill="#7a1fa2">b</text>
  <g transform="translate(0,176)">
    <line x1="81" y1="16" x2="171" y2="16" stroke="#1b1f24" stroke-width="1.6" marker-end="url(#gEdge)"/>
    <line x1="92" y1="42" x2="172" y2="21" stroke="#1b1f24" stroke-width="1.6" marker-end="url(#gEdge)"/>
    <circle cx="74" cy="16" r="5" fill="#1b1f24"/><text x="66" y="21" text-anchor="end" font-size="14">A</text>
    <circle cx="178" cy="16" r="5" fill="#1b1f24"/><text x="186" y="21" font-size="14">B</text>
    <circle cx="86" cy="44" r="5" fill="#1b1f24"/><text x="86" y="60" text-anchor="middle" font-size="14">C</text>
  </g>
</svg>
