<svg viewBox="58 60 1150 396" xmlns="http://www.w3.org/2000/svg" font-family="Helvetica Neue, Arial, sans-serif">
<defs><marker id="ah" markerWidth="9" markerHeight="9" refX="7" refY="4" orient="auto"><path d="M0,0 L8,4 L0,8 Z" fill="#8a94a0"/></marker><marker id="ahb" markerWidth="9" markerHeight="9" refX="7" refY="4" orient="auto"><path d="M0,0 L8,4 L0,8 Z" fill="#13294B"/></marker></defs>
<line x1="180" y1="115" x2="395" y2="130" stroke="#d8dee7" stroke-width="1" opacity="0.85"/>
<line x1="180" y1="115" x2="395" y2="195" stroke="#d8dee7" stroke-width="1" opacity="0.85"/>
<line x1="180" y1="115" x2="395" y2="260" stroke="#d8dee7" stroke-width="1" opacity="0.85"/>
<line x1="180" y1="115" x2="395" y2="325" stroke="#d8dee7" stroke-width="1" opacity="0.85"/>
<line x1="180" y1="115" x2="395" y2="390" stroke="#d8dee7" stroke-width="1" opacity="0.85"/>
<line x1="180" y1="165" x2="395" y2="130" stroke="#d8dee7" stroke-width="1" opacity="0.85"/>
<line x1="180" y1="165" x2="395" y2="195" stroke="#d8dee7" stroke-width="1" opacity="0.85"/>
<line x1="180" y1="165" x2="395" y2="260" stroke="#d8dee7" stroke-width="1" opacity="0.85"/>
<line x1="180" y1="165" x2="395" y2="325" stroke="#d8dee7" stroke-width="1" opacity="0.85"/>
<line x1="180" y1="165" x2="395" y2="390" stroke="#d8dee7" stroke-width="1" opacity="0.85"/>
<line x1="180" y1="215" x2="395" y2="130" stroke="#d8dee7" stroke-width="1" opacity="0.85"/>
<line x1="180" y1="215" x2="395" y2="195" stroke="#d8dee7" stroke-width="1" opacity="0.85"/>
<line x1="180" y1="215" x2="395" y2="260" stroke="#d8dee7" stroke-width="1" opacity="0.85"/>
<line x1="180" y1="215" x2="395" y2="325" stroke="#d8dee7" stroke-width="1" opacity="0.85"/>
<line x1="180" y1="215" x2="395" y2="390" stroke="#d8dee7" stroke-width="1" opacity="0.85"/>
<line x1="180" y1="265" x2="395" y2="130" stroke="#d8dee7" stroke-width="1" opacity="0.85"/>
<line x1="180" y1="265" x2="395" y2="195" stroke="#d8dee7" stroke-width="1" opacity="0.85"/>
<line x1="180" y1="265" x2="395" y2="260" stroke="#d8dee7" stroke-width="1" opacity="0.85"/>
<line x1="180" y1="265" x2="395" y2="325" stroke="#d8dee7" stroke-width="1" opacity="0.85"/>
<line x1="180" y1="265" x2="395" y2="390" stroke="#d8dee7" stroke-width="1" opacity="0.85"/>
<line x1="180" y1="315" x2="395" y2="130" stroke="#d8dee7" stroke-width="1" opacity="0.85"/>
<line x1="180" y1="315" x2="395" y2="195" stroke="#d8dee7" stroke-width="1" opacity="0.85"/>
<line x1="180" y1="315" x2="395" y2="260" stroke="#d8dee7" stroke-width="1" opacity="0.85"/>
<line x1="180" y1="315" x2="395" y2="325" stroke="#d8dee7" stroke-width="1" opacity="0.85"/>
<line x1="180" y1="315" x2="395" y2="390" stroke="#d8dee7" stroke-width="1" opacity="0.85"/>
<line x1="180" y1="365" x2="395" y2="130" stroke="#d8dee7" stroke-width="1" opacity="0.85"/>
<line x1="180" y1="365" x2="395" y2="195" stroke="#d8dee7" stroke-width="1" opacity="0.85"/>
<line x1="180" y1="365" x2="395" y2="260" stroke="#d8dee7" stroke-width="1" opacity="0.85"/>
<line x1="180" y1="365" x2="395" y2="325" stroke="#d8dee7" stroke-width="1" opacity="0.85"/>
<line x1="180" y1="365" x2="395" y2="390" stroke="#d8dee7" stroke-width="1" opacity="0.85"/>
<line x1="395" y1="130" x2="610" y2="115" stroke="#d8dee7" stroke-width="1" opacity="0.85"/>
<line x1="395" y1="130" x2="610" y2="165" stroke="#d8dee7" stroke-width="1" opacity="0.85"/>
<line x1="395" y1="130" x2="610" y2="215" stroke="#d8dee7" stroke-width="1" opacity="0.85"/>
<line x1="395" y1="130" x2="610" y2="265" stroke="#d8dee7" stroke-width="1" opacity="0.85"/>
<line x1="395" y1="130" x2="610" y2="315" stroke="#d8dee7" stroke-width="1" opacity="0.85"/>
<line x1="395" y1="130" x2="610" y2="365" stroke="#d8dee7" stroke-width="1" opacity="0.85"/>
<line x1="395" y1="195" x2="610" y2="115" stroke="#d8dee7" stroke-width="1" opacity="0.85"/>
<line x1="395" y1="195" x2="610" y2="165" stroke="#d8dee7" stroke-width="1" opacity="0.85"/>
<line x1="395" y1="195" x2="610" y2="215" stroke="#d8dee7" stroke-width="1" opacity="0.85"/>
<line x1="395" y1="195" x2="610" y2="265" stroke="#d8dee7" stroke-width="1" opacity="0.85"/>
<line x1="395" y1="195" x2="610" y2="315" stroke="#d8dee7" stroke-width="1" opacity="0.85"/>
<line x1="395" y1="195" x2="610" y2="365" stroke="#d8dee7" stroke-width="1" opacity="0.85"/>
<line x1="395" y1="260" x2="610" y2="115" stroke="#d8dee7" stroke-width="1" opacity="0.85"/>
<line x1="395" y1="260" x2="610" y2="165" stroke="#d8dee7" stroke-width="1" opacity="0.85"/>
<line x1="395" y1="260" x2="610" y2="215" stroke="#d8dee7" stroke-width="1" opacity="0.85"/>
<line x1="395" y1="260" x2="610" y2="265" stroke="#d8dee7" stroke-width="1" opacity="0.85"/>
<line x1="395" y1="260" x2="610" y2="315" stroke="#d8dee7" stroke-width="1" opacity="0.85"/>
<line x1="395" y1="260" x2="610" y2="365" stroke="#d8dee7" stroke-width="1" opacity="0.85"/>
<line x1="395" y1="325" x2="610" y2="115" stroke="#d8dee7" stroke-width="1" opacity="0.85"/>
<line x1="395" y1="325" x2="610" y2="165" stroke="#d8dee7" stroke-width="1" opacity="0.85"/>
<line x1="395" y1="325" x2="610" y2="215" stroke="#d8dee7" stroke-width="1" opacity="0.85"/>
<line x1="395" y1="325" x2="610" y2="265" stroke="#d8dee7" stroke-width="1" opacity="0.85"/>
<line x1="395" y1="325" x2="610" y2="315" stroke="#d8dee7" stroke-width="1" opacity="0.85"/>
<line x1="395" y1="325" x2="610" y2="365" stroke="#d8dee7" stroke-width="1" opacity="0.85"/>
<line x1="395" y1="390" x2="610" y2="115" stroke="#d8dee7" stroke-width="1" opacity="0.85"/>
<line x1="395" y1="390" x2="610" y2="165" stroke="#d8dee7" stroke-width="1" opacity="0.85"/>
<line x1="395" y1="390" x2="610" y2="215" stroke="#d8dee7" stroke-width="1" opacity="0.85"/>
<line x1="395" y1="390" x2="610" y2="265" stroke="#d8dee7" stroke-width="1" opacity="0.85"/>
<line x1="395" y1="390" x2="610" y2="315" stroke="#d8dee7" stroke-width="1" opacity="0.85"/>
<line x1="395" y1="390" x2="610" y2="365" stroke="#d8dee7" stroke-width="1" opacity="0.85"/>
<circle cx="180" cy="115" r="16" fill="#13294B"/>
<circle cx="180" cy="165" r="16" fill="#fff" stroke="#9aa6b6" stroke-width="2"/>
<circle cx="180" cy="215" r="16" fill="#13294B"/>
<circle cx="180" cy="265" r="16" fill="#13294B"/>
<circle cx="180" cy="315" r="16" fill="#fff" stroke="#9aa6b6" stroke-width="2"/>
<circle cx="180" cy="365" r="16" fill="#fff" stroke="#9aa6b6" stroke-width="2"/>
<circle cx="395" cy="130" r="16" fill="#fff7f2" stroke="#FF5F05" stroke-width="2.5"/>
<circle cx="395" cy="195" r="16" fill="#fff7f2" stroke="#FF5F05" stroke-width="2.5"/>
<circle cx="395" cy="260" r="16" fill="#fff7f2" stroke="#FF5F05" stroke-width="2.5"/>
<circle cx="395" cy="325" r="16" fill="#fff7f2" stroke="#FF5F05" stroke-width="2.5"/>
<circle cx="395" cy="390" r="16" fill="#fff7f2" stroke="#FF5F05" stroke-width="2.5"/>
<circle cx="610" cy="115" r="16" fill="#eaf0fb" stroke="#13294B" stroke-width="2.5"/>
<circle cx="610" cy="165" r="16" fill="#eaf0fb" stroke="#13294B" stroke-width="2.5"/>
<circle cx="610" cy="215" r="16" fill="#eaf0fb" stroke="#13294B" stroke-width="2.5"/>
<circle cx="610" cy="265" r="16" fill="#eaf0fb" stroke="#13294B" stroke-width="2.5"/>
<circle cx="610" cy="315" r="16" fill="#eaf0fb" stroke="#13294B" stroke-width="2.5"/>
<circle cx="610" cy="365" r="16" fill="#FF5F05"/>
<text x="180" y="84" text-anchor="middle" font-size="21" fill="#5b6672">partial set  s<tspan font-size="15" dy="6">t</tspan></text>
<text x="395" y="84" text-anchor="middle" font-size="21" fill="#5b6672">hidden · 64</text>
<text x="610" y="84" text-anchor="middle" font-size="21" fill="#5b6672">logits</text>
<path d="M158,100 C149.5,100 141,142.0 141,170.0 C141,223.2 141,240.0 129.1,240.0 C141,240.0 141,363.2 141,310.0 C141,338.0 149.5,380 158,380" fill="none" stroke="#5b6672" stroke-width="2.5"/>
<text x="106" y="251" text-anchor="middle" font-size="30" fill="#13294B" font-style="italic">𝒰</text>
<path d="M628,100 C636.5,100 645,134.5 645,157.5 C645,201.2 645,215.0 656.9,215.0 C645,215.0 645,316.2 645,272.5 C645,295.5 636.5,330 628,330" fill="none" stroke="#5b6672" stroke-width="2.5"/>
<text x="681" y="226" text-anchor="middle" font-size="30" fill="#13294B" font-style="italic">𝒰</text>
<text x="634" y="371" font-size="20" fill="#FF5F05">stop</text>
<circle cx="70" cy="442" r="9" fill="#13294B"/><text x="86" y="448" font-size="17" fill="#5b6672">in set</text>
<circle cx="180" cy="442" r="9" fill="#fff" stroke="#9aa6b6" stroke-width="2"/><text x="196" y="448" font-size="17" fill="#5b6672">not yet</text>
<line x1="712" y1="215" x2="770" y2="215" stroke="#8a94a0" stroke-width="2.5" marker-end="url(#ah)"/>
<rect x="772" y="188" width="392" height="54" rx="14" fill="#fff" stroke="#13294B" stroke-width="2.5"/>
<text x="968" y="222" text-anchor="middle" font-size="22" fill="#13294B">softmax → sample  a<tspan font-size="15" dy="6">t</tspan></text>
<rect x="772" y="300" width="185" height="50" rx="12" fill="#eaf0fb" stroke="#13294B" stroke-width="2.5"/>
<text x="864" y="331" text-anchor="middle" font-size="21" fill="#13294B">add element j</text>
<rect x="979" y="300" width="185" height="50" rx="12" fill="#ffe8dd" stroke="#FF5F05" stroke-width="2.5"/>
<text x="1071" y="331" text-anchor="middle" font-size="21" fill="#1b1f24">stop → S(τ)</text>
<line x1="905" y1="242" x2="868" y2="300" stroke="#8a94a0" stroke-width="2.5" marker-end="url(#ah)"/>
<line x1="1031" y1="242" x2="1068" y2="300" stroke="#8a94a0" stroke-width="2.5" marker-end="url(#ah)"/>
<path d="M834,351 C560,478 360,474 202,388" fill="none" stroke="#13294B" stroke-width="2.5" stroke-dasharray="7 5" marker-end="url(#ahb)"/>
<text x="960" y="400" text-anchor="middle" font-size="18" fill="#5b6672" font-style="italic">autoregressive — grow the set, repeat</text>
</svg>