<svg viewBox="0 0 172 124" height="150" xmlns="http://www.w3.org/2000/svg">
  <line x1="16" y1="24" x2="86" y2="12" stroke="#c2cbd6" stroke-width="1"/>
  <line x1="16" y1="24" x2="86" y2="45" stroke="#c2cbd6" stroke-width="1"/>
  <line x1="16" y1="24" x2="86" y2="79" stroke="#c2cbd6" stroke-width="1"/>
  <line x1="16" y1="24" x2="86" y2="112" stroke="#c2cbd6" stroke-width="1"/>
  <line x1="16" y1="60" x2="86" y2="12" stroke="#c2cbd6" stroke-width="1"/>
  <line x1="16" y1="60" x2="86" y2="45" stroke="#c2cbd6" stroke-width="1"/>
  <line x1="16" y1="60" x2="86" y2="79" stroke="#c2cbd6" stroke-width="1"/>
  <line x1="16" y1="60" x2="86" y2="112" stroke="#c2cbd6" stroke-width="1"/>
  <line x1="16" y1="96" x2="86" y2="12" stroke="#c2cbd6" stroke-width="1"/>
  <line x1="16" y1="96" x2="86" y2="45" stroke="#c2cbd6" stroke-width="1"/>
  <line x1="16" y1="96" x2="86" y2="79" stroke="#c2cbd6" stroke-width="1"/>
  <line x1="16" y1="96" x2="86" y2="112" stroke="#c2cbd6" stroke-width="1"/>
  <line x1="86" y1="12" x2="156" y2="42" stroke="#c2cbd6" stroke-width="1"/>
  <line x1="86" y1="12" x2="156" y2="82" stroke="#c2cbd6" stroke-width="1"/>
  <line x1="86" y1="45" x2="156" y2="42" stroke="#c2cbd6" stroke-width="1"/>
  <line x1="86" y1="45" x2="156" y2="82" stroke="#c2cbd6" stroke-width="1"/>
  <line x1="86" y1="79" x2="156" y2="42" stroke="#c2cbd6" stroke-width="1"/>
  <line x1="86" y1="79" x2="156" y2="82" stroke="#c2cbd6" stroke-width="1"/>
  <line x1="86" y1="112" x2="156" y2="42" stroke="#c2cbd6" stroke-width="1"/>
  <line x1="86" y1="112" x2="156" y2="82" stroke="#c2cbd6" stroke-width="1"/>
  <circle cx="16" cy="24" r="7" fill="#13294B"/>
  <circle cx="16" cy="60" r="7" fill="#13294B"/>
  <circle cx="16" cy="96" r="7" fill="#13294B"/>
  <circle cx="86" cy="12" r="7" fill="#13294B"/>
  <circle cx="86" cy="45" r="7" fill="#13294B"/>
  <circle cx="86" cy="79" r="7" fill="#13294B"/>
  <circle cx="86" cy="112" r="7" fill="#13294B"/>
  <circle cx="156" cy="42" r="7" fill="#13294B"/>
  <circle cx="156" cy="82" r="7" fill="#13294B"/>
</svg>
